<?xml version="1.0" standalone="no"?>
<svg xmlns:xlink="http://www.w3.org/1999/xlink" id="wave" style="transform:rotate(0deg); transition: 0.3s" viewBox="0 0 1440 100" version="1.1" xmlns="http://www.w3.org/2000/svg"><defs><linearGradient id="sw-gradient-0" x1="0" x2="0" y1="1" y2="0"><stop stop-color="rgba(255, 233, 186, 1)" offset="0%"/><stop stop-color="rgba(255, 233, 186, 1)" offset="100%"/></linearGradient></defs><path style="transform:translate(0, 0px); opacity:1" fill="url(#sw-gradient-0)" d="M0,90L80,85C160,80,320,70,480,66.7C640,63,800,67,960,56.7C1120,47,1280,23,1440,25C1600,27,1760,53,1920,60C2080,67,2240,53,2400,43.3C2560,33,2720,27,2880,25C3040,23,3200,27,3360,31.7C3520,37,3680,43,3840,53.3C4000,63,4160,77,4320,70C4480,63,4640,37,4800,26.7C4960,17,5120,23,5280,21.7C5440,20,5600,10,5760,8.3C5920,7,6080,13,6240,13.3C6400,13,6560,7,6720,3.3C6880,0,7040,0,7200,1.7C7360,3,7520,7,7680,10C7840,13,8000,17,8160,30C8320,43,8480,67,8640,78.3C8800,90,8960,90,9120,81.7C9280,73,9440,57,9600,46.7C9760,37,9920,33,10080,30C10240,27,10400,23,10560,26.7C10720,30,10880,40,11040,45C11200,50,11360,50,11440,50L11520,50L11520,100L11440,100C11360,100,11200,100,11040,100C10880,100,10720,100,10560,100C10400,100,10240,100,10080,100C9920,100,9760,100,9600,100C9440,100,9280,100,9120,100C8960,100,8800,100,8640,100C8480,100,8320,100,8160,100C8000,100,7840,100,7680,100C7520,100,7360,100,7200,100C7040,100,6880,100,6720,100C6560,100,6400,100,6240,100C6080,100,5920,100,5760,100C5600,100,5440,100,5280,100C5120,100,4960,100,4800,100C4640,100,4480,100,4320,100C4160,100,4000,100,3840,100C3680,100,3520,100,3360,100C3200,100,3040,100,2880,100C2720,100,2560,100,2400,100C2240,100,2080,100,1920,100C1760,100,1600,100,1440,100C1280,100,1120,100,960,100C800,100,640,100,480,100C320,100,160,100,80,100L0,100Z"/></svg>